# xmcd
#
# Track frame offsets:
#	150
#	15315
#	33000
#	50225
#	66887
#	82692
#	97495
#	118185
#	136950
#	156627
#	175107
#	193425
#	212862
#
# Disc length: 3039 seconds
#
# Revision: 0
# Processed by: cddbd v1.4PL0 Copyright (c) Steve Scherf et al.
# Submitted via: dBpowerAMP V4.0
#
DISCID=bd0bdd0d
DTITLE=California - Vdihni Globoko
DYEAR=1993
DGENRE=Country
TTITLE0=Lopovi
TTITLE1=Moj Dan
TTITLE2=Brezdomci
TTITLE3=Nisem Avtomat
TTITLE4=Doktor
TTITLE5=Ni Veè Razloga
TTITLE6=Moje Sonce
TTITLE7=Svetniki
TTITLE8=Pot Domov
TTITLE9=Zgodaj Prepozno
TTITLE10=Veliki Ideali
TTITLE11=Goloba
TTITLE12=Kdo SMrdi
EXTD=
EXTT0=
EXTT1=
EXTT2=
EXTT3=
EXTT4=
EXTT5=
EXTT6=
EXTT7=
EXTT8=
EXTT9=
EXTT10=
EXTT11=
EXTT12=
PLAYORDER=
